<svg width="15" height="9" viewBox="0 0 15 9" fill="none" xmlns="http://www.w3.org/2000/svg">
<path d="M0 4.36682C0 4.53258 0.0658482 4.69155 0.183058 4.80876C0.300269 4.92597 0.45924 4.99182 0.625 4.99182H12.8663L10.1838 7.67432C10.0699 7.7922 10.0069 7.95007 10.0083 8.11395C10.0098 8.27782 10.0755 8.43458 10.1914 8.55046C10.3072 8.66634 10.464 8.73207 10.6279 8.73349C10.7917 8.73491 10.9496 8.67192 11.0675 8.55807L14.8175 4.80807C14.8753 4.75057 14.9212 4.68221 14.9525 4.60691C14.9839 4.53161 15 4.45087 15 4.36932V4.36682C15 4.28557 14.9838 4.20432 14.9513 4.12807C14.9201 4.0523 14.8742 3.98346 14.8162 3.92557L11.0663 0.175567C10.9484 0.0617181 10.7905 -0.00127832 10.6266 0.000145697C10.4628 0.00156971 10.306 0.0673002 10.1901 0.18318C10.0742 0.29906 10.0085 0.455818 10.0071 0.619691C10.0057 0.783564 10.0687 0.941441 10.1825 1.05932L12.8663 3.74182H0.625C0.45924 3.74182 0.300269 3.80767 0.183058 3.92488C0.0658482 4.04209 0 4.20106 0 4.36682Z" fill="white"/>
</svg>
