<svg width="28" height="22" viewBox="0 0 28 22" fill="none" xmlns="http://www.w3.org/2000/svg">
<path d="M16.2726 11.3301L15.2372 10.3888C15.3501 10.1775 15.4491 9.96045 15.5336 9.73831H16.9979C17.479 9.73831 17.8692 9.38364 17.8692 8.94614V6.62396C17.8692 6.18655 17.4791 5.8318 16.9979 5.8318H15.5335C15.449 5.60974 15.35 5.39269 15.2372 5.18138L16.2726 4.24004C16.6129 3.93071 16.6129 3.42913 16.2726 3.1198L14.4664 1.47778C14.126 1.16853 13.5745 1.16853 13.2341 1.47778L12.1987 2.41911C11.9662 2.31649 11.7276 2.22647 11.4832 2.1497V0.818468C11.4832 0.381054 11.0931 0.0263062 10.6118 0.0263062H8.05742C7.57627 0.0263062 7.18604 0.380973 7.18604 0.818468V2.1497C6.94178 2.22655 6.70302 2.31641 6.47058 2.41911L5.4352 1.47778C5.27182 1.32926 5.05013 1.24578 4.81902 1.24578C4.58791 1.24578 4.36631 1.32926 4.20284 1.47778L2.39653 3.1198C2.23315 3.26833 2.14133 3.46986 2.14133 3.67996C2.14133 3.89006 2.23315 4.09152 2.39653 4.24012L3.432 5.18146C3.31911 5.39269 3.22009 5.60974 3.13564 5.83188H1.67138C1.19013 5.83188 0.799999 6.18655 0.799999 6.62396V8.94623C0.799999 9.38364 1.19013 9.73839 1.67138 9.73839H3.13564C3.22027 9.96045 3.31911 10.1775 3.43209 10.3889L2.39662 11.3301C2.05635 11.6395 2.05635 12.1411 2.39662 12.4504L4.20284 14.0924C4.5432 14.4016 5.09476 14.4017 5.43511 14.0924L6.47058 13.1511C6.70293 13.2538 6.94178 13.3438 7.18604 13.4206V14.7518C7.18604 15.1892 7.57618 15.544 8.05742 15.544H10.6119C11.0931 15.544 11.4833 15.1893 11.4833 14.7518V13.4206C11.7275 13.3437 11.9663 13.2538 12.1988 13.1511L13.2342 14.0924C13.5746 14.4017 14.1261 14.4017 14.4665 14.0924L16.2727 12.4504C16.613 12.141 16.613 11.6394 16.2726 11.3301ZM14.0292 8.76901C13.9092 9.24408 13.704 9.69427 13.4194 10.107C13.2036 10.4198 13.2544 10.8268 13.5416 11.0878L14.4243 11.8902L13.8503 12.4121L12.9676 11.6096C12.6803 11.3485 12.2328 11.3026 11.8887 11.4985C11.4345 11.7573 10.9394 11.9438 10.4171 12.0527C10.0212 12.1353 9.74062 12.4556 9.74062 12.8249V13.9596H8.92889V12.8249C8.92889 12.4556 8.64836 12.1354 8.25244 12.0527C7.73013 11.9438 7.23502 11.7573 6.7808 11.4985C6.43698 11.3027 5.98924 11.3484 5.70196 11.6096L4.8192 12.4121L4.24524 11.8902L5.12791 11.0878C5.41511 10.8267 5.46578 10.4198 5.25013 10.107C4.96551 9.69427 4.76036 9.24408 4.64036 8.76901C4.54951 8.40917 4.19724 8.15414 3.79111 8.15414H2.54267V7.41621H3.79084C4.19689 7.41621 4.54916 7.16118 4.64009 6.80142C4.76018 6.32627 4.96524 5.87617 5.24987 5.46348C5.46569 5.15067 5.41493 4.74372 5.12773 4.48263L4.24498 3.68012L4.81902 3.15835L5.70169 3.96085C5.98889 4.22202 6.43662 4.26784 6.78062 4.07188C7.23467 3.81313 7.72978 3.62671 8.25218 3.5177C8.64809 3.43511 8.92862 3.11479 8.92862 2.74558V1.61063H9.74036V2.74542C9.74036 3.11463 10.0209 3.43487 10.4168 3.51754C10.9393 3.62655 11.4343 3.81297 11.8884 4.07172C12.2324 4.26784 12.6802 4.22194 12.9673 3.96069L13.85 3.15818L14.424 3.67996L13.5412 4.48247C13.254 4.74364 13.2034 5.15051 13.4191 5.46332C13.7037 5.876 13.9088 6.32619 14.0289 6.80126C14.1197 7.16101 14.4721 7.41604 14.8781 7.41604H16.1263V8.15398H14.8781C14.4722 8.15406 14.12 8.40909 14.0292 8.76901Z" fill="white" fill-opacity="0.87"/>
<path d="M9.33458 4.74115C7.48827 4.74115 5.98622 6.10664 5.98622 7.78511C5.98622 9.46357 7.48827 10.8291 9.33458 10.8291C11.1809 10.8291 12.6829 9.46357 12.6829 7.78511C12.6829 6.10664 11.181 4.74115 9.33458 4.74115ZM9.33458 9.24483C8.44915 9.24483 7.72889 8.59004 7.72889 7.78511C7.72889 6.98018 8.44924 6.32539 9.33458 6.32539C10.2199 6.32539 10.9403 6.98018 10.9403 7.78511C10.9403 8.59004 10.22 9.24483 9.33458 9.24483Z" fill="white" fill-opacity="0.87"/>
<path d="M26.6292 16.8657C27.0078 16.8022 27.2581 16.4718 27.1883 16.1276L26.8595 14.5072C26.826 14.3419 26.7215 14.1955 26.5693 14.1002C26.4171 14.005 26.2292 13.9685 26.0476 13.999L25.0804 14.1611C25.0055 14.0441 24.9244 13.9304 24.8375 13.8203L25.3951 13.0841C25.4999 12.9456 25.54 12.775 25.5065 12.6097C25.473 12.4444 25.3685 12.2981 25.2163 12.2028L23.7233 11.2683C23.4065 11.0699 22.9723 11.1425 22.754 11.4308L22.1963 12.1671C22.0522 12.1326 21.9065 12.1044 21.7595 12.0825L21.5811 11.2033C21.5112 10.8592 21.1473 10.6314 20.7692 10.6951L18.9867 10.9941C18.8048 11.0245 18.6438 11.1195 18.539 11.2578C18.4342 11.3963 18.3941 11.5669 18.4276 11.7322L18.606 12.6113C18.4772 12.6796 18.3522 12.7532 18.2311 12.8322L17.4212 12.3253C17.2689 12.23 17.0812 12.1937 16.8995 12.224C16.7176 12.2545 16.5566 12.3494 16.4518 12.4879L15.4239 13.8451C15.319 13.9836 15.279 14.1541 15.3125 14.3194C15.346 14.4847 15.4505 14.6311 15.6028 14.7264L16.4126 15.2332C16.3746 15.3643 16.3436 15.4967 16.3195 15.6304L15.3524 15.7926C15.1705 15.8231 15.0095 15.918 14.9047 16.0564C14.7998 16.1949 14.7598 16.3654 14.7933 16.5307L15.1222 18.1511C15.1921 18.4953 15.5555 18.7232 15.9341 18.6593L16.9012 18.4972C16.9762 18.6142 17.0573 18.728 17.1442 18.838L16.5866 19.5742C16.4818 19.7127 16.4417 19.8832 16.4752 20.0485C16.5087 20.2139 16.6132 20.3602 16.7654 20.4555L18.2584 21.3899C18.5752 21.5883 19.0095 21.5157 19.2277 21.2274L19.7853 20.4912C19.9294 20.5257 20.0751 20.5539 20.2222 20.5759L20.4006 21.455C20.4626 21.7603 20.7556 21.9739 21.0853 21.9739C21.1273 21.9739 21.1699 21.9705 21.2125 21.9633L22.995 21.6644C23.1769 21.6339 23.3379 21.5389 23.4427 21.4006C23.5475 21.2621 23.5876 21.0915 23.554 20.9263L23.3756 20.0471C23.5044 19.9789 23.6295 19.9052 23.7506 19.8262L24.5604 20.3331C24.7127 20.4285 24.9002 20.4649 25.0821 20.4344C25.264 20.4039 25.425 20.309 25.5298 20.1705L26.5577 18.8133C26.776 18.525 26.696 18.1305 26.3789 17.9321L25.5691 17.4251C25.6071 17.2941 25.6381 17.1617 25.6622 17.028L26.6292 16.8657ZM24.8972 15.8675C24.5776 15.9211 24.3412 16.1684 24.3273 16.4635C24.3113 16.8008 24.2338 17.131 24.0969 17.445C23.9772 17.7196 24.082 18.033 24.3496 18.2005L25.0142 18.6166L24.7769 18.93L24.1124 18.514C23.8445 18.3464 23.4852 18.3692 23.2459 18.5689C22.972 18.7972 22.6603 18.9809 22.3193 19.1149C22.021 19.232 21.8513 19.5211 21.9102 19.8115L22.0566 20.5331L21.6452 20.6021L21.4988 19.8806C21.4398 19.5901 21.1679 19.3751 20.8433 19.3625C20.4719 19.3478 20.1086 19.2774 19.7633 19.153C19.6796 19.1229 19.5927 19.1084 19.5068 19.1084C19.2827 19.1084 19.0655 19.207 18.9324 19.3827L18.4748 19.9869L18.13 19.7712L18.5876 19.1671C18.7719 18.9238 18.7468 18.597 18.5272 18.3793C18.2761 18.1304 18.074 17.847 17.9266 17.5368C17.7976 17.2657 17.4789 17.1114 17.1603 17.1651L16.3666 17.2982L16.2906 16.9242L17.0844 16.7911C17.404 16.7375 17.6404 16.4902 17.6543 16.1951C17.6703 15.8577 17.7478 15.5276 17.8847 15.2134C18.0044 14.9388 17.8996 14.6255 17.6319 14.4579L16.9673 14.042L17.2046 13.7286L17.8692 14.1446C18.1371 14.3123 18.4963 14.2893 18.7357 14.0897C19.0096 13.8614 19.3213 13.6777 19.6625 13.5436C19.9606 13.4264 20.1303 13.1374 20.0714 12.847L19.925 12.1254L20.3364 12.0564L20.4828 12.778C20.5418 13.0686 20.8138 13.2835 21.1384 13.2961C21.5095 13.3107 21.8727 13.3811 22.2181 13.5056C22.5204 13.6145 22.865 13.5191 23.0492 13.2758L23.5068 12.6716L23.8516 12.8873L23.394 13.4915C23.2097 13.7349 23.2348 14.0616 23.4544 14.2793C23.7055 14.5282 23.9076 14.8115 24.0549 15.1216C24.1837 15.3927 24.502 15.5471 24.8212 15.4934L25.615 15.3604L25.6909 15.7344L24.8972 15.8675Z" fill="white" fill-opacity="0.87"/>
<path d="M22.3828 14.4911C21.8428 14.1532 21.1901 14.0266 20.5454 14.1347C19.9006 14.2428 19.3407 14.5728 18.9689 15.0637C18.2012 16.0772 18.4838 17.4695 19.5987 18.1673C20.0228 18.4328 20.5074 18.5601 20.9871 18.5601C21.7683 18.5601 22.5371 18.2226 23.0127 17.5947C23.7803 16.5812 23.4977 15.1889 22.3828 14.4911ZM21.8644 16.876C21.5328 17.3138 20.871 17.4248 20.3894 17.1234C19.9077 16.8219 19.7856 16.2203 20.1172 15.7825C20.1173 15.7824 20.1173 15.7824 20.1173 15.7824C20.2779 15.5703 20.5198 15.4277 20.7984 15.381C20.8633 15.3702 20.9284 15.3648 20.9931 15.3648C21.2058 15.3648 21.4133 15.4231 21.5923 15.5351C22.0739 15.8366 22.1961 16.4381 21.8644 16.876Z" fill="white" fill-opacity="0.87"/>
</svg>
