<svg width="511" height="415" viewBox="0 0 511 415" fill="none" xmlns="http://www.w3.org/2000/svg">
<g clip-path="url(#clip0_401_43)">
<path d="M511 385.177H0V386.375H511V385.177Z" fill="#343D68"/>
<path d="M320.611 180.03C320.611 180.03 297.691 198.184 309.151 202.31C320.611 206.436 327.979 187.457 327.979 187.457L320.611 180.03Z" fill="#E9C1A1"/>
<path d="M321.43 173.428L316.518 181.68C316.518 181.68 324.704 181.68 326.341 194.058L332.89 185.806L321.43 173.428Z" fill="#CFCCE0"/>
<path d="M430.302 361.572L431.121 386.328L421.297 392.104L417.205 389.629L418.023 361.572H430.302Z" fill="#E9C1A1"/>
<path d="M372.182 354.97L373.819 381.377L350.899 391.279L352.536 377.251C352.536 377.251 359.085 366.523 357.448 354.97H372.182Z" fill="#E9C1A1"/>
<path d="M407.381 156.1C407.381 156.1 420.479 190.758 422.935 212.213C425.39 233.667 429.483 290.606 429.483 290.606L437.669 364.048L414.749 367.348L404.926 293.081L382.824 219.639L377.912 293.081L373.819 359.922L352.536 360.747L350.899 291.431L341.895 203.135L346.806 161.051L407.381 156.1Z" fill="#2F2E41"/>
<path d="M419.66 387.978C419.66 387.978 421.003 374.119 430.973 381.874L432.758 380.551L440.943 398.706C440.943 398.706 450.766 412.734 433.576 414.384C416.386 416.035 418.023 398.706 418.023 398.706L416.386 391.279L417.204 386.415L419.66 387.978Z" fill="#2F2E41"/>
<path d="M372.182 371.474C374.197 372.636 375.867 374.319 377.019 376.351C378.17 378.382 378.761 380.687 378.731 383.027C378.731 391.279 377.912 392.104 377.912 392.104L365.634 395.405C365.634 395.405 357.448 394.58 352.536 399.531C347.625 404.482 323.067 407.783 323.067 401.181C323.067 394.58 343.532 383.852 343.532 383.852C343.532 383.852 349.609 373.506 353.938 374.553C358.266 375.6 359.904 377.251 359.904 378.076C359.904 378.901 357.448 384.677 357.448 384.677C357.448 384.677 371.364 381.376 372.182 371.474Z" fill="#2F2E41"/>
<path d="M370.545 54.601C381.847 54.601 391.01 45.3648 391.01 33.9713C391.01 22.5778 381.847 13.3415 370.545 13.3415C359.243 13.3415 350.08 22.5778 350.08 33.9713C350.08 45.3648 359.243 54.601 370.545 54.601Z" fill="#E9C1A1"/>
<path d="M385.689 39.335L394.693 59.9648L370.136 95.448C370.136 95.448 368.499 56.664 363.587 50.0625C358.676 43.461 385.689 39.335 385.689 39.335Z" fill="#E9C1A1"/>
<path d="M374.229 82.2451L378.322 71.5177L381.596 72.3426L385.689 69.0418L391.419 50.8878L399.605 56.664L410.246 164.764L343.941 166.414L352.946 91.322L361.132 69.8673L367.04 61.9927L370.954 73.993L374.229 82.2451Z" fill="#CFCCE0"/>
<path d="M393.056 128.456L395.561 53.8105C395.561 53.8105 400.423 54.1885 402.061 56.6641C403.698 59.1396 430.711 64.0908 430.711 64.0908L425.8 140.834C425.8 140.834 446.264 201.898 438.897 205.198C431.53 208.499 418.432 207.674 418.432 207.674L393.056 128.456Z" fill="#575A89"/>
<path d="M353.355 118.966L362.039 68.658L342.713 81.8323L347.625 118.141L343.532 142.896C343.532 142.896 327.979 211.387 332.89 213.863C337.802 216.338 343.532 213.863 343.532 213.863L353.355 144.547V118.966Z" fill="#575A89"/>
<path d="M348.443 80.1819L342.713 81.8324L340.257 114.84L336.164 143.722L316.518 179.205C316.518 179.205 326.341 172.603 330.434 191.583L352.07 153.61L348.443 80.1819Z" fill="#575A89"/>
<path d="M412.293 173.428C412.293 173.428 389.373 191.583 400.833 195.709C412.293 199.835 419.66 180.855 419.66 180.855L412.293 173.428Z" fill="#E9C1A1"/>
<path d="M426.209 182.506L418.842 191.583L409.019 174.254L413.111 166.827L426.209 182.506Z" fill="#CFCCE0"/>
<path d="M424.572 66.9789L431.12 63.6782C431.12 63.6782 436.032 70.2797 436.85 76.056C437.669 81.8323 441.762 89.2591 441.762 93.385C441.762 97.511 453.222 136.295 453.222 136.295L427.027 189.932C427.027 189.932 421.297 170.128 409.019 168.477L429.483 139.596L418.023 118.966L424.572 66.9789Z" fill="#575A89"/>
<path d="M387.677 14.3155L391.536 12.7581C391.536 12.7581 383.467 3.80294 372.241 4.58168L375.398 1.07745C375.398 1.07745 367.68 -2.03736 360.664 6.13906C356.975 10.4372 352.708 15.4895 350.047 21.1808H345.914L347.639 25.0094L341.602 28.8381L347.799 28.1504C347.429 30.247 347.373 32.3874 347.63 34.5009C347.896 36.615 348.967 38.5423 350.615 39.8761C350.615 39.8761 355.401 29.8897 355.401 28.3322V32.2258C355.401 32.2258 359.26 28.7216 359.26 26.3855L361.365 29.111L362.418 24.828L375.398 29.111L373.293 25.6068L381.362 26.7749L378.205 22.4919C378.205 22.4919 387.326 27.5535 387.677 31.8364C388.028 36.1193 390.698 40.1776 390.698 40.1776C390.698 40.1776 397.851 20.1558 387.677 14.3155Z" fill="#2F2E41"/>
<path d="M387.326 33.5587C388.592 33.5587 389.618 32.2656 389.618 30.6705C389.618 29.0754 388.592 27.7823 387.326 27.7823C386.06 27.7823 385.034 29.0754 385.034 30.6705C385.034 32.2656 386.06 33.5587 387.326 33.5587Z" fill="#E9C1A1"/>
<path d="M94.7215 170.571H24.0573V150.61H60.9428L94.7215 170.571Z" fill="#4F47C8"/>
<path d="M23.8633 167.831V226.15H253.328V167.831H23.8633ZM113.359 216.365H38.8115V208.145H113.359V216.365ZM238.38 201.1H38.8115V192.881H238.38V201.1ZM238.38 185.836H38.8115V177.616H238.38V185.836Z" fill="#343D68"/>
<path d="M94.7215 76.2443H24.0573V56.2828H60.9428L94.7215 76.2443Z" fill="#4F47C8"/>
<path d="M94.7215 262.941H24.0573V242.98H60.9428L94.7215 262.941Z" fill="#4F47C8"/>
<path d="M23.8633 259.027V317.346H253.328V259.027H23.8633ZM156.456 307.561H38.8115V299.341H156.456V307.561ZM156.456 292.296H38.8115V284.077H156.456V292.296ZM238.38 277.032H38.8115V268.812H238.38V277.032Z" fill="#343D68"/>
<path d="M180.282 60.6562C179.528 58.4129 170.077 50.787 175.869 49.5052L180.618 55.8891L202.454 33.8776L204.65 36.0914L180.282 60.6562Z" fill="#4F47C8"/>
<path d="M318.363 213.234H285.748V180.356H307.88V181.139H286.525V212.451H317.586V196.795H318.363V213.234Z" fill="#343D68"/>
<path d="M301.888 204.658C301.134 202.415 291.683 194.789 297.474 193.507L302.224 199.891L324.059 177.879L326.256 180.093L301.888 204.658Z" fill="#4F47C8"/>
<path d="M318.363 305.995H285.748V273.118H307.88V273.9H286.525V305.212H317.586V289.556H318.363V305.995Z" fill="#343D68"/>
<path d="M301.888 297.419C301.134 295.176 291.683 287.55 297.474 286.268L302.224 292.652L324.059 270.641L326.256 272.855L301.888 297.419Z" fill="#4F47C8"/>
<path d="M27 337.878V396.196H256.465V337.878H27ZM116.495 386.411H41.9482V378.192H116.495V386.411ZM159.593 371.146H41.9482V362.927H159.593L159.593 371.146ZM241.517 355.882H41.9483V347.663H241.517V355.882Z" fill="#343D68"/>
</g>
<defs>
<clipPath id="clip0_401_43">
<rect width="511" height="414" fill="white" transform="translate(0 0.494995)"/>
</clipPath>
</defs>
</svg>
