<svg width="251" height="216" viewBox="0 0 251 216" fill="none" xmlns="http://www.w3.org/2000/svg">
<g clip-path="url(#clip0_401_200)">
<path d="M23.2988 169.363L23.8633 168.23L23.0801 167.235C9.26326 149.68 2 129.248 2 108C2 79.7878 14.7576 53.2028 38.0623 33.1482C61.3764 13.0854 92.4193 2 125.5 2C158.581 2 189.624 13.0854 212.937 33.1481C236.241 53.2032 249 79.7879 249 108C249 136.212 236.241 162.797 212.937 182.852C189.624 202.915 158.581 214 125.5 214C99.7281 214 75.1558 207.284 54.2586 194.583L53.3958 194.059L52.4615 194.442L5.22346 213.8L5.22322 213.8C4.31442 214.172 3.14859 213.964 2.52756 213.427L2.52738 213.427C1.98467 212.958 1.90887 212.315 2.12855 211.874L23.2988 169.363Z" stroke="white" stroke-width="4"/>
<path d="M203.268 143.994L199.507 126.46C199.196 125.012 197.892 123.873 196.214 123.584L166.633 118.493C165.26 118.257 163.843 118.627 162.854 119.478L150.836 129.819C130.589 122.012 119.351 112.321 109.463 94.1477L121.442 83.8388C122.431 82.9879 122.86 81.7674 122.586 80.587L116.67 55.1311C116.334 53.687 115.01 52.5644 113.327 52.2969L92.952 49.0598C92.3941 48.9713 91.8196 48.981 91.2656 49.0894C85.8858 50.1415 80.9771 52.4741 77.0704 55.8368C70.3047 61.6591 67.7192 70.1544 69.5933 80.4056C72.7397 97.6185 82.5399 121.573 100.62 137.194L100.866 137.405C119.005 152.953 146.841 161.387 166.843 164.095C169.363 164.436 171.791 164.606 174.117 164.606C182.791 164.606 190.058 162.251 195.393 157.661C199.301 154.298 202.012 150.074 203.234 145.444C203.36 144.968 203.372 144.474 203.268 143.994Z" fill="white"/>
</g>
<defs>
<clipPath id="clip0_401_200">
<rect width="251" height="216" fill="white"/>
</clipPath>
</defs>
</svg>
